<svg width="76" height="76" viewBox="0 0 76 76" fill="none" xmlns="http://www.w3.org/2000/svg">
<circle cx="38" cy="38" r="38" fill="#E4E4E4"/>
<path d="M53 26.8889C53.663 26.8889 54.2989 27.2986 54.7678 28.0279C55.2366 28.7572 55.5 29.7464 55.5 30.7778V50.2222C55.5 51.2536 55.2366 52.2428 54.7678 52.9721C54.2989 53.7014 53.663 54.1111 53 54.1111H23C22.337 54.1111 21.7011 53.7014 21.2322 52.9721C20.7634 52.2428 20.5 51.2536 20.5 50.2222V30.7778C20.5 29.7464 20.7634 28.7572 21.2322 28.0279C21.7011 27.2986 22.337 26.8889 23 26.8889H53ZM23 23C21.6739 23 20.4021 23.8194 19.4645 25.2781C18.5268 26.7367 18 28.715 18 30.7778V50.2222C18 52.285 18.5268 54.2633 19.4645 55.7219C20.4021 57.1806 21.6739 58 23 58H53C54.3261 58 55.5979 57.1806 56.5355 55.7219C57.4732 54.2633 58 52.285 58 50.2222V30.7778C58 28.715 57.4732 26.7367 56.5355 25.2781C55.5979 23.8194 54.3261 23 53 23H23Z" fill="black"/>
<path d="M50.5 47.3056C50.5 47.0477 50.5658 46.8004 50.6831 46.6181C50.8003 46.4358 50.9592 46.3334 51.125 46.3334H52.375C52.5408 46.3334 52.6997 46.4358 52.8169 46.6181C52.9342 46.8004 53 47.0477 53 47.3056V49.25C53 49.5079 52.9342 49.7552 52.8169 49.9375C52.6997 50.1198 52.5408 50.2222 52.375 50.2222H51.125C50.9592 50.2222 50.8003 50.1198 50.6831 49.9375C50.5658 49.7552 50.5 49.5079 50.5 49.25V47.3056ZM50.5 39.5278C50.5 39.27 50.5658 39.0227 50.6831 38.8403C50.8003 38.658 50.9592 38.5556 51.125 38.5556H52.375C52.5408 38.5556 52.6997 38.658 52.8169 38.8403C52.9342 39.0227 53 39.27 53 39.5278V41.4722C53 41.7301 52.9342 41.9774 52.8169 42.1597C52.6997 42.342 52.5408 42.4445 52.375 42.4445H51.125C50.9592 42.4445 50.8003 42.342 50.6831 42.1597C50.5658 41.9774 50.5 41.7301 50.5 41.4722V39.5278ZM38 39.5278C38 39.27 38.0658 39.0227 38.1831 38.8403C38.3003 38.658 38.4592 38.5556 38.625 38.5556H39.875C40.0408 38.5556 40.1997 38.658 40.3169 38.8403C40.4342 39.0227 40.5 39.27 40.5 39.5278V41.4722C40.5 41.7301 40.4342 41.9774 40.3169 42.1597C40.1997 42.342 40.0408 42.4445 39.875 42.4445H38.625C38.4592 42.4445 38.3003 42.342 38.1831 42.1597C38.0658 41.9774 38 41.7301 38 41.4722V39.5278ZM43 39.5278C43 39.27 43.0658 39.0227 43.1831 38.8403C43.3003 38.658 43.4592 38.5556 43.625 38.5556H47.375C47.5408 38.5556 47.6997 38.658 47.8169 38.8403C47.9342 39.0227 48 39.27 48 39.5278V41.4722C48 41.7301 47.9342 41.9774 47.8169 42.1597C47.6997 42.342 47.5408 42.4445 47.375 42.4445H43.625C43.4592 42.4445 43.3003 42.342 43.1831 42.1597C43.0658 41.9774 43 41.7301 43 41.4722V39.5278ZM45.5 47.3056C45.5 47.0477 45.5658 46.8004 45.6831 46.6181C45.8003 46.4358 45.9592 46.3334 46.125 46.3334H47.375C47.5408 46.3334 47.6997 46.4358 47.8169 46.6181C47.9342 46.8004 48 47.0477 48 47.3056V49.25C48 49.5079 47.9342 49.7552 47.8169 49.9375C47.6997 50.1198 47.5408 50.2222 47.375 50.2222H46.125C45.9592 50.2222 45.8003 50.1198 45.6831 49.9375C45.5658 49.7552 45.5 49.5079 45.5 49.25V47.3056ZM33 39.5278C33 39.27 33.0658 39.0227 33.1831 38.8403C33.3003 38.658 33.4592 38.5556 33.625 38.5556H34.875C35.0408 38.5556 35.1997 38.658 35.3169 38.8403C35.4342 39.0227 35.5 39.27 35.5 39.5278V41.4722C35.5 41.7301 35.4342 41.9774 35.3169 42.1597C35.1997 42.342 35.0408 42.4445 34.875 42.4445H33.625C33.4592 42.4445 33.3003 42.342 33.1831 42.1597C33.0658 41.9774 33 41.7301 33 41.4722V39.5278ZM28 39.5278C28 39.27 28.0658 39.0227 28.1831 38.8403C28.3003 38.658 28.4592 38.5556 28.625 38.5556H29.875C30.0408 38.5556 30.1997 38.658 30.3169 38.8403C30.4342 39.0227 30.5 39.27 30.5 39.5278V41.4722C30.5 41.7301 30.4342 41.9774 30.3169 42.1597C30.1997 42.342 30.0408 42.4445 29.875 42.4445H28.625C28.4592 42.4445 28.3003 42.342 28.1831 42.1597C28.0658 41.9774 28 41.7301 28 41.4722V39.5278ZM23 39.5278C23 39.27 23.0658 39.0227 23.1831 38.8403C23.3003 38.658 23.4592 38.5556 23.625 38.5556H24.875C25.0408 38.5556 25.1997 38.658 25.3169 38.8403C25.4342 39.0227 25.5 39.27 25.5 39.5278V41.4722C25.5 41.7301 25.4342 41.9774 25.3169 42.1597C25.1997 42.342 25.0408 42.4445 24.875 42.4445H23.625C23.4592 42.4445 23.3003 42.342 23.1831 42.1597C23.0658 41.9774 23 41.7301 23 41.4722V39.5278ZM50.5 31.75C50.5 31.4922 50.5658 31.2449 50.6831 31.0626C50.8003 30.8802 50.9592 30.7778 51.125 30.7778H52.375C52.5408 30.7778 52.6997 30.8802 52.8169 31.0626C52.9342 31.2449 53 31.4922 53 31.75V33.6945C53 33.9523 52.9342 34.1996 52.8169 34.3819C52.6997 34.5643 52.5408 34.6667 52.375 34.6667H51.125C50.9592 34.6667 50.8003 34.5643 50.6831 34.3819C50.5658 34.1996 50.5 33.9523 50.5 33.6945V31.75ZM45.5 31.75C45.5 31.4922 45.5658 31.2449 45.6831 31.0626C45.8003 30.8802 45.9592 30.7778 46.125 30.7778H47.375C47.5408 30.7778 47.6997 30.8802 47.8169 31.0626C47.9342 31.2449 48 31.4922 48 31.75V33.6945C48 33.9523 47.9342 34.1996 47.8169 34.3819C47.6997 34.5643 47.5408 34.6667 47.375 34.6667H46.125C45.9592 34.6667 45.8003 34.5643 45.6831 34.3819C45.5658 34.1996 45.5 33.9523 45.5 33.6945V31.75ZM40.5 31.75C40.5 31.4922 40.5658 31.2449 40.6831 31.0626C40.8003 30.8802 40.9592 30.7778 41.125 30.7778H42.375C42.5408 30.7778 42.6997 30.8802 42.8169 31.0626C42.9342 31.2449 43 31.4922 43 31.75V33.6945C43 33.9523 42.9342 34.1996 42.8169 34.3819C42.6997 34.5643 42.5408 34.6667 42.375 34.6667H41.125C40.9592 34.6667 40.8003 34.5643 40.6831 34.3819C40.5658 34.1996 40.5 33.9523 40.5 33.6945V31.75ZM35.5 31.75C35.5 31.4922 35.5658 31.2449 35.6831 31.0626C35.8003 30.8802 35.9592 30.7778 36.125 30.7778H37.375C37.5408 30.7778 37.6997 30.8802 37.8169 31.0626C37.9342 31.2449 38 31.4922 38 31.75V33.6945C38 33.9523 37.9342 34.1996 37.8169 34.3819C37.6997 34.5643 37.5408 34.6667 37.375 34.6667H36.125C35.9592 34.6667 35.8003 34.5643 35.6831 34.3819C35.5658 34.1996 35.5 33.9523 35.5 33.6945V31.75ZM30.5 31.75C30.5 31.4922 30.5658 31.2449 30.6831 31.0626C30.8003 30.8802 30.9592 30.7778 31.125 30.7778H32.375C32.5408 30.7778 32.6997 30.8802 32.8169 31.0626C32.9342 31.2449 33 31.4922 33 31.75V33.6945C33 33.9523 32.9342 34.1996 32.8169 34.3819C32.6997 34.5643 32.5408 34.6667 32.375 34.6667H31.125C30.9592 34.6667 30.8003 34.5643 30.6831 34.3819C30.5658 34.1996 30.5 33.9523 30.5 33.6945V31.75ZM23 31.75C23 31.4922 23.0658 31.2449 23.1831 31.0626C23.3003 30.8802 23.4592 30.7778 23.625 30.7778H27.375C27.5408 30.7778 27.6997 30.8802 27.8169 31.0626C27.9342 31.2449 28 31.4922 28 31.75V33.6945C28 33.9523 27.9342 34.1996 27.8169 34.3819C27.6997 34.5643 27.5408 34.6667 27.375 34.6667H23.625C23.4592 34.6667 23.3003 34.5643 23.1831 34.3819C23.0658 34.1996 23 33.9523 23 33.6945V31.75ZM23 47.3056C23 47.0477 23.0658 46.8004 23.1831 46.6181C23.3003 46.4358 23.4592 46.3334 23.625 46.3334H24.875C25.0408 46.3334 25.1997 46.4358 25.3169 46.6181C25.4342 46.8004 25.5 47.0477 25.5 47.3056V49.25C25.5 49.5079 25.4342 49.7552 25.3169 49.9375C25.1997 50.1198 25.0408 50.2222 24.875 50.2222H23.625C23.4592 50.2222 23.3003 50.1198 23.1831 49.9375C23.0658 49.7552 23 49.5079 23 49.25V47.3056ZM28 47.3056C28 47.0477 28.0658 46.8004 28.1831 46.6181C28.3003 46.4358 28.4592 46.3334 28.625 46.3334H42.375C42.5408 46.3334 42.6997 46.4358 42.8169 46.6181C42.9342 46.8004 43 47.0477 43 47.3056V49.25C43 49.5079 42.9342 49.7552 42.8169 49.9375C42.6997 50.1198 42.5408 50.2222 42.375 50.2222H28.625C28.4592 50.2222 28.3003 50.1198 28.1831 49.9375C28.0658 49.7552 28 49.5079 28 49.25V47.3056Z" fill="black"/>
</svg>
