<svg width="76" height="76" viewBox="0 0 76 76" fill="none" xmlns="http://www.w3.org/2000/svg">
<circle cx="38" cy="38" r="38" fill="#E4E4E4"/>
<path d="M57.9929 18H44.8657L44.2115 18.7101V46.8411L44.6829 50.5304H44.1658V50.907H43.7272V50.4347H42.8559V50.8113H42.4102V50.2448H41.7175V50.7172H40.1376L37.2522 50.1507V48.7305H38.4764L38.9078 46.4614H42.8031C42.9319 46.4614 43.0554 46.4061 43.1465 46.3077C43.2376 46.2092 43.2887 46.0758 43.2887 45.9366V25.2365C43.2889 25.1677 43.2765 25.0995 43.2521 25.0359C43.2277 24.9723 43.1919 24.9146 43.1467 24.866C43.1016 24.8175 43.0479 24.7791 42.9889 24.7532C42.9299 24.7272 42.8668 24.7142 42.8031 24.7148H18.4828C18.3549 24.7152 18.2323 24.7703 18.1418 24.868C18.0514 24.9658 18.0004 25.0983 18 25.2365V45.9396C18 46.2283 18.2171 46.4645 18.4857 46.4645H22.7923L23.078 48.7336H25.0892L20.2326 53.9819L19.2256 56.2974C19.2256 56.2974 23.4251 58 28.7646 58C34.1026 58 42.5917 56.6771 43.7287 56.6771H50.6422V54.7846L50.4465 53.1376H52.9377C52.652 53.3012 52.4806 53.5142 52.4806 53.7489V55.2585C52.4806 55.7834 53.3419 56.2048 54.409 56.2048C55.4703 56.2048 56.3373 55.788 56.3373 55.2601V53.7473C56.3373 53.2256 55.4731 52.8057 54.409 52.8057C54.1418 52.8057 53.8904 52.8366 53.6605 52.8829V52.6205H50.3894L50.3108 51.9521H58L57.9929 18ZM19.7498 44.288V26.6042H41.2761V44.288H19.7512H19.7498Z" fill="black"/>
</svg>
