<svg width="76" height="76" viewBox="0 0 76 76" fill="none" xmlns="http://www.w3.org/2000/svg">
<circle cx="38" cy="38" r="38" fill="#E4E4E4"/>
<path d="M50 20.5C51.0609 20.5 52.0783 20.7634 52.8284 21.2322C53.5786 21.7011 54 22.337 54 23V53C54 53.663 53.5786 54.2989 52.8284 54.7678C52.0783 55.2366 51.0609 55.5 50 55.5H26C24.9391 55.5 23.9217 55.2366 23.1716 54.7678C22.4214 54.2989 22 53.663 22 53V23C22 22.337 22.4214 21.7011 23.1716 21.2322C23.9217 20.7634 24.9391 20.5 26 20.5H50ZM26 18C23.8783 18 21.8434 18.5268 20.3431 19.4645C18.8429 20.4021 18 21.6739 18 23V53C18 54.3261 18.8429 55.5979 20.3431 56.5355C21.8434 57.4732 23.8783 58 26 58H50C52.1217 58 54.1566 57.4732 55.6569 56.5355C57.1571 55.5979 58 54.3261 58 53V23C58 21.6739 57.1571 20.4021 55.6569 19.4645C54.1566 18.5268 52.1217 18 50 18H26Z" fill="black"/>
<path d="M38 53C39.0609 53 40.0783 52.7366 40.8284 52.2678C41.5786 51.7989 42 51.163 42 50.5C42 49.837 41.5786 49.2011 40.8284 48.7322C40.0783 48.2634 39.0609 48 38 48C36.9391 48 35.9217 48.2634 35.1716 48.7322C34.4214 49.2011 34 49.837 34 50.5C34 51.163 34.4214 51.7989 35.1716 52.2678C35.9217 52.7366 36.9391 53 38 53Z" fill="black"/>
</svg>
