<svg width="76" height="76" viewBox="0 0 76 76" fill="none" xmlns="http://www.w3.org/2000/svg">
<circle cx="38" cy="38" r="38" fill="#E4E4E4"/>
<path d="M53.3333 50.7273C53.8636 50.7264 54.3719 50.4388 54.7469 49.9275C55.1218 49.4163 55.3327 48.7231 55.3333 48V20.7273C55.3327 20.0042 55.1218 19.311 54.7469 18.7997C54.3719 18.2884 53.8636 18.0008 53.3333 18H22.6667C22.1364 18.0008 21.6281 18.2884 21.2531 18.7997C20.8782 19.311 20.6673 20.0042 20.6667 20.7273V48C20.6673 48.7231 20.8782 49.4163 21.2531 49.9275C21.6281 50.4388 22.1364 50.7264 22.6667 50.7273H53.3333ZM23.3333 21.6364H52.6667V47.0909H23.3333V21.6364ZM18 54.3636H58V58H18V54.3636Z" fill="black"/>
</svg>
